<svg width="16" height="18" viewBox="0 0 16 18" fill="none" xmlns="http://www.w3.org/2000/svg">
<path d="M3.83317 3.99996V1.49996C3.83317 1.03973 4.20627 0.666626 4.6665 0.666626H14.6665C15.1268 0.666626 15.4998 1.03973 15.4998 1.49996V13.1666C15.4998 13.6269 15.1268 14 14.6665 14H12.1665V16.4992C12.1665 16.9599 11.7916 17.3333 11.3275 17.3333H1.33888C0.875492 17.3333 0.5 16.9628 0.5 16.4992L0.502167 4.83402C0.50225 4.37338 0.8772 3.99996 1.34118 3.99996H3.83317ZM2.16868 5.66663L2.16682 15.6666H10.4998V5.66663H2.16868ZM5.49983 3.99996H12.1665V12.3333H13.8332V2.33329H5.49983V3.99996ZM3.83333 8.16663H8.83333V9.83329H3.83333V8.16663ZM3.83333 11.5H8.83333V13.1666H3.83333V11.5Z" fill="#194595"/>
</svg>
