<svg width="120" height="120" viewBox="0 0 120 120" fill="none" xmlns="http://www.w3.org/2000/svg">
<path fill-rule="evenodd" clip-rule="evenodd" d="M106.05 39.496V80.251C106.05 95.351 96.6 106.001 81.5 106.001H38.25C23.15 106.001 13.75 95.351 13.75 80.251V39.496C13.75 24.396 23.2 13.751 38.25 13.751H81.5C96.6 13.751 106.05 24.396 106.05 39.496Z" stroke="#194595" stroke-width="2.5" stroke-linecap="round" stroke-linejoin="round"/>
<path d="M26.4067 82.1546L34.0467 74.0896C36.7017 71.2746 41.1267 71.1396 43.9467 73.7896C44.0317 73.8746 48.6317 78.5496 48.6317 78.5496C51.4067 81.3746 55.9417 81.4196 58.7667 78.6496C58.9517 78.4696 70.4367 64.5396 70.4367 64.5396C73.3967 60.9446 78.7117 60.4296 82.3117 63.3946C82.5517 63.5946 93.4017 74.7296 93.4017 74.7296" stroke="#194595" stroke-width="2.5" stroke-linecap="round" stroke-linejoin="round"/>
<path fill-rule="evenodd" clip-rule="evenodd" d="M51.563 45.6655C51.563 50.5105 47.638 54.4355 42.7929 54.4355C37.9479 54.4355 34.0229 50.5105 34.0229 45.6655C34.0229 40.8205 37.9479 36.8955 42.7929 36.8955C47.638 36.9005 51.563 40.8205 51.563 45.6655Z" stroke="#194595" stroke-width="2.5" stroke-linecap="round" stroke-linejoin="round"/>
</svg>
