<svg width="40" height="40" viewBox="0 0 40 40" fill="none" xmlns="http://www.w3.org/2000/svg">
<rect x="0.5" y="0.5" width="39" height="39" rx="19.5" stroke="#F3AEAF" stroke-opacity="0.33"/>
<rect x="4.5" y="4.5" width="31" height="31" rx="15.5" stroke="#F3AEAF"/>
<rect x="8" y="8" width="24" height="24" rx="12" fill="#E62233"/>
<path d="M19.9922 9.9971C25.515 9.9971 29.9922 14.4742 29.9922 19.9971C29.9922 25.5199 25.515 29.9971 19.9922 29.9971C14.4694 29.9971 9.99217 25.5199 9.99217 19.9971C9.99217 14.4742 14.4694 9.9971 19.9922 9.9971ZM19.9922 11.9971C15.5739 11.9971 11.9922 15.5788 11.9922 19.9971C11.9922 24.4153 15.5739 27.9971 19.9922 27.9971C24.4105 27.9971 27.9922 24.4153 27.9922 19.9971C27.9922 15.5788 24.4105 11.9971 19.9922 11.9971ZM23.4922 17.9971H17.9922C17.7161 17.9971 17.4922 18.2209 17.4922 18.4971C17.4922 18.7732 17.7161 18.9971 17.9922 18.9971H21.9922C23.3729 18.9971 24.4922 20.1164 24.4922 21.4971C24.4922 22.8778 23.3729 23.9971 21.9922 23.9971H20.9922V25.9971H18.9922V23.9971H16.4922V21.9971H21.9922C22.2683 21.9971 22.4922 21.7732 22.4922 21.4971C22.4922 21.2209 22.2683 20.9971 21.9922 20.9971H17.9922C16.6115 20.9971 15.4922 19.8778 15.4922 18.4971C15.4922 17.1164 16.6115 15.9971 17.9922 15.9971H18.9922V13.9971H20.9922V15.9971L23.4922 15.9971V17.9971Z" fill="#FFE5E5"/>
</svg>
