<svg width="40" height="40" viewBox="0 0 40 40" fill="none" xmlns="http://www.w3.org/2000/svg">
<rect x="0.5" y="0.5" width="39" height="39" rx="19.5" stroke="#F3AEAF" stroke-opacity="0.33"/>
<rect x="4.5" y="4.5" width="31" height="31" rx="15.5" stroke="#F3AEAF"/>
<rect x="8" y="8" width="24" height="24" rx="12" fill="#E62233"/>
<path d="M17.4016 25.2V21.3H22.6016V25.2H24.5516V14.8H15.4516V25.2H17.4016ZM18.7016 25.2H21.3016V22.6H18.7016V25.2ZM25.8516 25.2H27.1516V26.5H12.8516V25.2H14.1516V14.15C14.1516 13.791 14.4426 13.5 14.8016 13.5H25.2016C25.5606 13.5 25.8516 13.791 25.8516 14.15V25.2ZM19.3516 17.4V16.1H20.6516V17.4H21.9516V18.7H20.6516V20H19.3516V18.7H18.0516V17.4H19.3516Z" fill="#FFE5E5"/>
</svg>
