<svg width="46" height="40" viewBox="0 0 46 40" fill="none" xmlns="http://www.w3.org/2000/svg">
<path d="M0 20C0 8.95431 8.95431 0 20 0C31.0457 0 40 8.95431 40 20C40 31.0457 31.0457 40 20 40C8.95431 40 0 31.0457 0 20Z" fill="#96C7F2"/>
<path d="M28.3375 18.3333V26.6667C28.3375 27.1269 27.9644 27.5 27.5041 27.5H12.5041C12.0439 27.5 11.6708 27.1269 11.6708 26.6667V18.3333H28.3375ZM28.3375 16.6667H11.6708V13.3333C11.6708 12.8731 12.0439 12.5 12.5041 12.5H27.5041C27.9644 12.5 28.3375 12.8731 28.3375 13.3333V16.6667ZM22.5041 23.3333V25H25.8375V23.3333H22.5041Z" fill="white"/>
<g filter="url(#filter0_d_11405_1615)">
<path d="M41.5 9C41.5 11.4853 39.4853 13.5 37 13.5C34.5147 13.5 32.5 11.4853 32.5 9C32.5 6.51472 34.5147 4.5 37 4.5C39.4853 4.5 41.5 6.51472 41.5 9Z" fill="white"/>
<path d="M40.375 9C40.375 10.864 38.864 12.375 37 12.375C35.136 12.375 33.625 10.864 33.625 9C33.625 7.13604 35.136 5.625 37 5.625C38.864 5.625 40.375 7.13604 40.375 9Z" fill="#E5484D"/>
</g>
<defs>
<filter id="filter0_d_11405_1615" x="24" y="-2" width="26" height="26" filterUnits="userSpaceOnUse" color-interpolation-filters="sRGB">
<feFlood flood-opacity="0" result="BackgroundImageFix"/>
<feColorMatrix in="SourceAlpha" type="matrix" values="0 0 0 0 0 0 0 0 0 0 0 0 0 0 0 0 0 0 127 0" result="hardAlpha"/>
<feOffset dy="2"/>
<feGaussianBlur stdDeviation="2"/>
<feColorMatrix type="matrix" values="0 0 0 0 0.105882 0 0 0 0 0.109804 0 0 0 0 0.113725 0 0 0 0.04 0"/>
<feBlend mode="normal" in2="BackgroundImageFix" result="effect1_dropShadow_11405_1615"/>
<feBlend mode="normal" in="SourceGraphic" in2="effect1_dropShadow_11405_1615" result="shape"/>
</filter>
</defs>
</svg>
