<svg width="40" height="40" viewBox="0 0 40 40" fill="none" xmlns="http://www.w3.org/2000/svg">
<path d="M0 20C0 8.95431 8.95431 0 20 0C31.0457 0 40 8.95431 40 20C40 31.0457 31.0457 40 20 40C8.95431 40 0 31.0457 0 20Z" fill="#96C7F2"/>
<path d="M28.3374 18.3333V26.6667C28.3374 27.1269 27.9643 27.5 27.5041 27.5H12.504C12.0438 27.5 11.6707 27.1269 11.6707 26.6667V18.3333H28.3374ZM28.3374 16.6667H11.6707V13.3333C11.6707 12.8731 12.0438 12.5 12.504 12.5H27.5041C27.9643 12.5 28.3374 12.8731 28.3374 13.3333V16.6667ZM22.5041 23.3333V25H25.8374V23.3333H22.5041Z" fill="white"/>
</svg>
