<svg width="46" height="40" viewBox="0 0 46 40" fill="none" xmlns="http://www.w3.org/2000/svg">
<path d="M0 20C0 8.95431 8.95431 0 20 0C31.0457 0 40 8.95431 40 20C40 31.0457 31.0457 40 20 40C8.95431 40 0 31.0457 0 20Z" fill="#96C7F2"/>
<path d="M26.6667 11.6667C27.1269 11.6667 27.5 12.0398 27.5 12.5V15.6308L20.001 23.1302L19.9958 26.6625L23.5345 26.6677L27.5 22.7017V27.5C27.5 27.9603 27.1269 28.3333 26.6667 28.3333H13.3333C12.8731 28.3333 12.5 27.9603 12.5 27.5V12.5C12.5 12.0398 12.8731 11.6667 13.3333 11.6667H26.6667ZM28.1485 17.3397L29.327 18.5182L22.8452 25L21.6649 24.9983L21.6667 23.8215L28.1485 17.3397ZM20 20H15.8333V21.6667H20V20ZM22.5 16.6667H15.8333V18.3333H22.5V16.6667Z" fill="white"/>
<g filter="url(#filter0_d_11405_1600)">
<path d="M41.5 9C41.5 11.4853 39.4853 13.5 37 13.5C34.5147 13.5 32.5 11.4853 32.5 9C32.5 6.51472 34.5147 4.5 37 4.5C39.4853 4.5 41.5 6.51472 41.5 9Z" fill="white"/>
<path d="M40.375 9C40.375 10.864 38.864 12.375 37 12.375C35.136 12.375 33.625 10.864 33.625 9C33.625 7.13604 35.136 5.625 37 5.625C38.864 5.625 40.375 7.13604 40.375 9Z" fill="#E5484D"/>
</g>
<defs>
<filter id="filter0_d_11405_1600" x="24" y="-2" width="26" height="26" filterUnits="userSpaceOnUse" color-interpolation-filters="sRGB">
<feFlood flood-opacity="0" result="BackgroundImageFix"/>
<feColorMatrix in="SourceAlpha" type="matrix" values="0 0 0 0 0 0 0 0 0 0 0 0 0 0 0 0 0 0 127 0" result="hardAlpha"/>
<feOffset dy="2"/>
<feGaussianBlur stdDeviation="2"/>
<feColorMatrix type="matrix" values="0 0 0 0 0.105882 0 0 0 0 0.109804 0 0 0 0 0.113725 0 0 0 0.04 0"/>
<feBlend mode="normal" in2="BackgroundImageFix" result="effect1_dropShadow_11405_1600"/>
<feBlend mode="normal" in="SourceGraphic" in2="effect1_dropShadow_11405_1600" result="shape"/>
</filter>
</defs>
</svg>
