<svg width="40" height="40" viewBox="0 0 40 40" fill="none" xmlns="http://www.w3.org/2000/svg">
<path d="M0 20C0 8.95431 8.95431 0 20 0C31.0457 0 40 8.95431 40 20C40 31.0457 31.0457 40 20 40C8.95431 40 0 31.0457 0 20Z" fill="#96C7F2"/>
<path d="M26.6667 11.6667C27.1269 11.6667 27.5 12.0398 27.5 12.5V15.6308L20.001 23.1302L19.9958 26.6625L23.5345 26.6677L27.5 22.7017V27.5C27.5 27.9602 27.1269 28.3333 26.6667 28.3333H13.3333C12.8731 28.3333 12.5 27.9602 12.5 27.5V12.5C12.5 12.0398 12.8731 11.6667 13.3333 11.6667H26.6667ZM28.1485 17.3397L29.327 18.5182L22.8452 25L21.6649 24.9982L21.6667 23.8215L28.1485 17.3397ZM20 20H15.8333V21.6667H20V20ZM22.5 16.6667H15.8333V18.3333H22.5V16.6667Z" fill="white"/>
</svg>
