<svg width="46" height="40" viewBox="0 0 46 40" fill="none" xmlns="http://www.w3.org/2000/svg">
<path d="M0 20C0 8.95431 8.95431 0 20 0C31.0457 0 40 8.95431 40 20C40 31.0457 31.0457 40 20 40C8.95431 40 0 31.0457 0 20Z" fill="#C4B8F3"/>
<path d="M19.9988 10.4167L23.5205 15.5695L29.5094 17.3265L25.697 22.2681L25.8767 28.5069L19.9988 26.4081L14.121 28.5069L14.3007 22.2681L10.4883 17.3265L16.4772 15.5695L19.9988 10.4167ZM18.3322 20H16.6655C16.6655 21.8409 18.1579 23.3334 19.9988 23.3334C21.784 23.3334 23.2414 21.93 23.3281 20.1664L23.3322 20H21.6655C21.6655 20.9205 20.9193 21.6667 19.9988 21.6667C19.1203 21.6667 18.4004 20.9868 18.3367 20.1244L18.3322 20Z" fill="white"/>
<g filter="url(#filter0_d_11405_1630)">
<path d="M41.5 9C41.5 11.4853 39.4853 13.5 37 13.5C34.5147 13.5 32.5 11.4853 32.5 9C32.5 6.51472 34.5147 4.5 37 4.5C39.4853 4.5 41.5 6.51472 41.5 9Z" fill="white"/>
<path d="M40.375 9C40.375 10.864 38.864 12.375 37 12.375C35.136 12.375 33.625 10.864 33.625 9C33.625 7.13604 35.136 5.625 37 5.625C38.864 5.625 40.375 7.13604 40.375 9Z" fill="#E5484D"/>
</g>
<defs>
<filter id="filter0_d_11405_1630" x="24" y="-2" width="26" height="26" filterUnits="userSpaceOnUse" color-interpolation-filters="sRGB">
<feFlood flood-opacity="0" result="BackgroundImageFix"/>
<feColorMatrix in="SourceAlpha" type="matrix" values="0 0 0 0 0 0 0 0 0 0 0 0 0 0 0 0 0 0 127 0" result="hardAlpha"/>
<feOffset dy="2"/>
<feGaussianBlur stdDeviation="2"/>
<feColorMatrix type="matrix" values="0 0 0 0 0.105882 0 0 0 0 0.109804 0 0 0 0 0.113725 0 0 0 0.04 0"/>
<feBlend mode="normal" in2="BackgroundImageFix" result="effect1_dropShadow_11405_1630"/>
<feBlend mode="normal" in="SourceGraphic" in2="effect1_dropShadow_11405_1630" result="shape"/>
</filter>
</defs>
</svg>
