<svg width="40" height="40" viewBox="0 0 40 40" fill="none" xmlns="http://www.w3.org/2000/svg">
<path d="M0 20C0 8.95431 8.95431 0 20 0C31.0457 0 40 8.95431 40 20C40 31.0457 31.0457 40 20 40C8.95431 40 0 31.0457 0 20Z" fill="#C4B8F3"/>
<path d="M19.9988 10.4167L23.5205 15.5695L29.5094 17.3265L25.697 22.2681L25.8767 28.5068L19.9988 26.4081L14.121 28.5068L14.3007 22.2681L10.4883 17.3265L16.4772 15.5695L19.9988 10.4167ZM18.3322 20H16.6655C16.6655 21.8409 18.1579 23.3333 19.9988 23.3333C21.784 23.3333 23.2414 21.93 23.3281 20.1663L23.3322 20H21.6655C21.6655 20.9205 20.9193 21.6667 19.9988 21.6667C19.1203 21.6667 18.4004 20.9867 18.3367 20.1244L18.3322 20Z" fill="white"/>
</svg>
